<svg xmlns="http://www.w3.org/2000/svg" viewBox="0 0 100 100">
  <defs>
    <linearGradient id="bookGradient" x1="0%" y1="0%" x2="100%" y2="100%">
      <stop offset="0%" style="stop-color:#667eea"/>
      <stop offset="100%" style="stop-color:#764ba2"/>
    </linearGradient>
    <linearGradient id="cloudGradient" x1="0%" y1="0%" x2="100%" y2="100%">
      <stop offset="0%" style="stop-color:#a8edea"/>
      <stop offset="100%" style="stop-color:#fed6e3"/>
    </linearGradient>
  </defs>
  <!-- 云朵 -->
  <path d="M75 45c0-11-9-20-20-20-8.5 0-15.8 5.3-18.7 12.8C32.5 36.5 28 40.5 28 45.5c0 5.5 4.5 10 10 10h40c5.5 0 10-4.5 10-10 0-3-1.3-5.7-3.4-7.5" fill="url(#cloudGradient)" opacity="0.9"/>
  <!-- 书本 -->
  <g transform="translate(25, 40)">
    <path d="M25 5 L25 45 C15 40 5 42 0 45 L0 10 C5 7 15 5 25 5" fill="url(#bookGradient)"/>
    <path d="M25 5 L25 45 C35 40 45 42 50 45 L50 10 C45 7 35 5 25 5" fill="url(#bookGradient)" opacity="0.8"/>
    <line x1="25" y1="5" x2="25" y2="45" stroke="#fff" stroke-width="1" opacity="0.5"/>
  </g>
  <!-- 文字装饰线 -->
  <line x1="35" y1="55" x2="45" y2="55" stroke="#fff" stroke-width="2" stroke-linecap="round"/>
  <line x1="35" y1="62" x2="42" y2="62" stroke="#fff" stroke-width="2" stroke-linecap="round"/>
</svg>
